<svg
width="28"
height="28"
viewBox="0 0 28 28"
fill="none"
xmlns="http://www.w3.org/2000/svg"
>
<g id="Icon 32/Left">
  <g id="Arrow - Left Square">
    <path
      id="Combined Shape"
      d="M19.5837 14.9907C20.0718 14.9245 20.448 14.5061 20.448 13.9999C20.448 13.4476 20.0003 12.9999 19.448 12.9999L10.9726 12.9999L14.2759 9.71114L14.3729 9.59919C14.6642 9.20833 14.6332 8.65271 14.2789 8.29693C13.8892 7.90558 13.256 7.90423 12.8647 8.29392L7.84601 13.2913L7.84341 13.2943C7.81068 13.3271 7.78022 13.3623 7.75229 13.3994L7.74869 13.4036C7.45672 13.7956 7.48917 14.3531 7.84601 14.7085L12.8647 19.7058L12.977 19.8024C13.3691 20.092 13.9246 20.0586 14.2789 19.7028L14.3755 19.5904C14.6651 19.1983 14.6317 18.6429 14.2759 18.2886L10.9744 14.9999L19.448 14.9999L19.5837 14.9907Z"
      fill="white"
    />
    <path
      id="Stroke 1"
      opacity="0.1"
      fill-rule="evenodd"
      clip-rule="evenodd"
      d="M27.3333 8.2212L27.3333 19.7799C27.3333 24.318 24.0943 27.3332 19.4453 27.3332L8.55468 27.3332C3.91062 27.3332 0.666677 24.3091 0.666677 19.7799L0.666677 8.2212C0.666677 3.68282 3.90601 0.666534 8.55468 0.666534L19.4453 0.666534C24.094 0.666534 27.3333 3.68282 27.3333 8.2212ZM25.3333 19.7799L25.3333 8.2212C25.3333 4.82053 23.0201 2.66653 19.4453 2.66653L8.55468 2.66653C4.97996 2.66653 2.66668 4.82053 2.66668 8.2212L2.66668 19.7799C2.66668 23.1719 4.98505 25.3332 8.55468 25.3332L19.4453 25.3332C23.0204 25.3332 25.3333 23.1802 25.3333 19.7799Z"
      fill="white"
    />
  </g>
</g>
</svg>
