<svg width="32" height="32" viewBox="0 0 32 32" fill="none" xmlns="http://www.w3.org/2000/svg">
<g id="Icons">
<path id="Stroke 1" opacity="0.1" fill-rule="evenodd" clip-rule="evenodd" d="M29 10.5547L29 22.1133C29 26.6515 25.7609 29.6667 21.112 29.6667L10.2213 29.6667C5.57728 29.6667 2.33333 26.6425 2.33333 22.1133L2.33333 10.5547C2.33333 6.01629 5.57267 3 10.2213 3L21.112 3C25.7607 3 29 6.01629 29 10.5547ZM27 22.1133L27 10.5547C27 7.154 24.6867 5 21.112 5L10.2213 5C6.64662 5 4.33333 7.154 4.33333 10.5547L4.33333 22.1133C4.33333 25.5054 6.65171 27.6667 10.2213 27.6667L21.112 27.6667C24.6871 27.6667 27 25.5137 27 22.1133Z" fill="white"/>
<path id="Vector" d="M16 10.6625C16.2413 10.6625 16.4802 10.71 16.7032 10.8024C16.9261 10.8947 17.1287 11.0301 17.2993 11.2007C17.4699 11.3713 17.6053 11.5739 17.6976 11.7968C17.79 12.0198 17.8375 12.2587 17.8375 12.5C17.8375 12.7413 17.79 12.9802 17.6976 13.2032C17.6053 13.4261 17.4699 13.6287 17.2993 13.7993C17.1287 13.9699 16.9261 14.1053 16.7032 14.1976C16.4802 14.29 16.2413 14.3375 16 14.3375C15.5127 14.3375 15.0453 14.1439 14.7007 13.7993C14.3561 13.4547 14.1625 12.9873 14.1625 12.5C14.1625 12.0127 14.3561 11.5453 14.7007 11.2007C15.0453 10.8561 15.5127 10.6625 16 10.6625ZM16 18.5375C18.5988 18.5375 21.3375 19.815 21.3375 20.375V21.3375H10.6625V20.375C10.6625 19.815 13.4012 18.5375 16 18.5375ZM16 9C14.0662 9 12.5 10.5662 12.5 12.5C12.5 14.4338 14.0662 16 16 16C17.9338 16 19.5 14.4338 19.5 12.5C19.5 10.5662 17.9338 9 16 9ZM16 16.875C13.6637 16.875 9 18.0475 9 20.375V23H23V20.375C23 18.0475 18.3363 16.875 16 16.875Z" fill="#F9B03D"/>
</g>
</svg>
